<svg width="41" height="40" viewBox="0 0 41 40" fill="none" xmlns="http://www.w3.org/2000/svg">
<g id="Group 34">
<rect id="Rectangle 18" x="0.5" width="40" height="40" rx="20" fill="#CA3D26"/>
<path id="Arrow 2" d="M11.5 20.8581C11.0261 20.8581 10.6419 20.4739 10.6419 20C10.6419 19.5261 11.0261 19.1419 11.5 19.1419V20.8581ZM30.1068 19.3932C30.4419 19.7283 30.4419 20.2717 30.1068 20.6068L24.6458 26.0678C24.3106 26.4029 23.7673 26.4029 23.4322 26.0678C23.0971 25.7327 23.0971 25.1894 23.4322 24.8542L28.2864 20L23.4322 15.1458C23.0971 14.8106 23.0971 14.2673 23.4322 13.9322C23.7673 13.5971 24.3106 13.5971 24.6458 13.9322L30.1068 19.3932ZM11.5 19.1419L29.5 19.1419V20.8581L11.5 20.8581V19.1419Z" fill="#FAFAFA"/>
</g>
</svg>
