<svg width="17" height="17" viewBox="0 0 17 17" fill="none" xmlns="http://www.w3.org/2000/svg">
<g id="Frame">
<rect width="16" height="16" transform="translate(0.625 0.625)" fill="#CA3D26"/>
<g id="Group">
<path id="Vector" d="M7.08901 9.45697H5.50501C5.24901 9.45697 5.16901 9.36097 5.16901 9.12097V7.18497C5.16901 6.92897 5.26501 6.84897 5.50501 6.84897H7.08901V5.44097C7.08901 4.80097 7.20101 4.19297 7.52101 3.63297C7.85701 3.05697 8.33701 2.67297 8.94501 2.44897C9.34501 2.30497 9.74501 2.24097 10.177 2.24097H11.745C11.969 2.24097 12.065 2.33697 12.065 2.56097V4.38497C12.065 4.60897 11.969 4.70497 11.745 4.70497C11.313 4.70497 10.881 4.70497 10.449 4.72097C10.017 4.72097 9.79301 4.92897 9.79301 5.37697C9.77701 5.85697 9.79301 6.32097 9.79301 6.81697H11.649C11.905 6.81697 12.001 6.91297 12.001 7.16897V9.10497C12.001 9.36097 11.921 9.44097 11.649 9.44097H9.79301V14.657C9.79301 14.929 9.71301 15.025 9.42501 15.025H7.42501C7.18501 15.025 7.08901 14.929 7.08901 14.689V9.45697Z" fill="#FAFAFA"/>
</g>
</g>
</svg>
