<svg width="16" height="16" viewBox="0 0 16 16" fill="none" xmlns="http://www.w3.org/2000/svg">
<g id="Frame">
<g id="Group">
<path id="Vector" d="M7.99996 5.55469C6.65063 5.55469 5.55463 6.65069 5.55463 8.00002C5.55463 9.34935 6.65063 10.448 7.99996 10.448C9.34929 10.448 10.448 9.34935 10.448 8.00002C10.448 6.65069 9.34929 5.55469 7.99996 5.55469Z" fill="#FAFAFA"/>
<path id="Vector_2" d="M11.6906 1.33337H4.30931C2.66931 1.33337 1.33331 2.66937 1.33331 4.30937V11.6907C1.33331 13.3334 2.66931 14.6667 4.30931 14.6667H11.6906C13.3333 14.6667 14.6666 13.3334 14.6666 11.6907V4.30937C14.6666 2.66937 13.3333 1.33337 11.6906 1.33337ZM7.99998 12.32C5.61865 12.32 3.67998 10.3814 3.67998 8.00004C3.67998 5.61871 5.61865 3.68271 7.99998 3.68271C10.3813 3.68271 12.32 5.61871 12.32 8.00004C12.32 10.3814 10.3813 12.32 7.99998 12.32ZM12.4106 4.46671C11.9066 4.46671 11.496 4.05871 11.496 3.55471C11.496 3.05071 11.9066 2.64004 12.4106 2.64004C12.9146 2.64004 13.3253 3.05071 13.3253 3.55471C13.3253 4.05871 12.9146 4.46671 12.4106 4.46671Z" fill="#FAFAFA"/>
</g>
</g>
</svg>
