<svg width="100" height="101" viewBox="0 0 100 101" fill="none" xmlns="http://www.w3.org/2000/svg">
<g id="Frame">
<g id="Group">
<g id="1">
<path id="Vector" d="M46.5958 62.0346V74.5138C46.6346 76.2173 46.3276 77.9111 45.6934 79.4927C45.0593 81.0742 44.1111 82.5109 42.9062 83.7158C41.7013 84.9207 40.2646 85.8689 38.683 86.503C37.1014 87.1372 35.4077 87.4442 33.7042 87.4054H21.225C17.8079 87.3988 14.5327 86.0385 12.1165 83.6223C9.70027 81.206 8.33993 77.9308 8.33332 74.5138V52.0471C8.33332 27.8221 13.2583 22.7388 27.3333 14.3929C27.662 14.1616 28.035 14.0007 28.4289 13.9204C28.8227 13.84 29.2289 13.8419 29.622 13.926C30.015 14.0101 30.3865 14.1745 30.713 14.4089C31.0395 14.6434 31.314 14.9428 31.5193 15.2883C31.7247 15.6339 31.8563 16.0182 31.9061 16.417C31.9559 16.8159 31.9227 17.2207 31.8086 17.6061C31.6945 17.9916 31.5019 18.3492 31.243 18.6567C30.9842 18.9642 30.6645 19.2148 30.3042 19.3929C18.3417 26.4763 14.5083 29.6971 14.1792 49.1388H33.7042C35.4082 49.0994 37.1026 49.4061 38.6847 50.0403C40.2669 50.6745 41.704 51.623 42.909 52.8285C44.1141 54.034 45.0622 55.4714 45.6959 57.0537C46.3296 58.6361 46.6357 60.3305 46.5958 62.0346Z" fill="#CA3D26"/>
<path id="Vector_2" d="M91.6667 62.0346V74.5138C91.7054 76.2173 91.3984 77.9111 90.7642 79.4926C90.1301 81.0742 89.1819 82.5109 87.977 83.7158C86.7721 84.9207 85.3355 85.8689 83.7539 86.503C82.1723 87.1372 80.4785 87.4442 78.775 87.4054H66.275C62.8579 87.3988 59.5827 86.0385 57.1665 83.6223C54.7503 81.206 53.3899 77.9308 53.3833 74.5138V52.0471C53.3833 27.8221 58.3083 22.7388 72.3833 14.3929C72.712 14.1596 73.0855 13.997 73.4803 13.9153C73.875 13.8336 74.2823 13.8346 74.6766 13.9183C75.071 14.0019 75.4436 14.1664 75.7712 14.4013C76.0988 14.6362 76.3741 14.9365 76.5797 15.2832C76.7854 15.6298 76.917 16.0153 76.9662 16.4154C77.0154 16.8155 76.9812 17.2214 76.8656 17.6076C76.7501 17.9937 76.5557 18.3518 76.2949 18.659C76.034 18.9663 75.7123 19.2162 75.35 19.3929C63.3917 26.4763 59.5583 29.6971 59.2291 49.1388H78.775C80.4791 49.0994 82.1734 49.4061 83.7556 50.0403C85.3377 50.6745 86.7748 51.623 87.9799 52.8285C89.185 54.034 90.133 55.4714 90.7667 57.0537C91.4004 58.6361 91.7065 60.3305 91.6667 62.0346Z" fill="#FEC007"/>
</g>
</g>
</g>
</svg>
