<svg width="82" height="161" viewBox="0 0 82 161" fill="none" xmlns="http://www.w3.org/2000/svg">
<g id="&#60;Group&#62;" opacity="0.5">
<path id="&#60;Compound Path&#62;" fill-rule="evenodd" clip-rule="evenodd" d="M76.9344 97.5303C78.3963 98.4396 80.6966 97.6403 81.6351 99.1676C81.1121 99.4856 80.7632 99.8976 80.38 99.9308C78.1851 100.067 76.0258 99.6812 73.7953 100.338C71.7741 100.868 69.6119 102.582 67.5204 103.554C62.7797 105.738 58.0741 107.7 53.1605 108.889C44.7622 110.899 37.6215 110.346 31.3196 107.784C24.9478 105.365 20.3202 101.185 16.5298 96.1972C11.3135 89.4786 9.09524 81.1368 9.0384 71.6806C8.97382 67.9235 8.94399 64.2452 9.71578 60.2793C10.0312 58.8886 10.4512 57.4344 11.0453 56.0741C12.2681 53.4324 13.8375 52.1784 16.5901 51.8034C17.949 51.5765 19.2728 51.5708 20.5966 51.5651C22.199 51.5897 23.7316 51.7567 25.2642 51.9237C32.1254 53.0465 39.0913 54.1057 45.8827 55.3708C51.4201 56.4993 55.841 59.0062 59.3548 62.4641C61.3727 64.3341 63.3208 66.3464 65.1296 68.3435C70.3125 74.0834 73.9264 80.7773 75.3785 88.8856C75.9669 91.7248 77.2176 94.2611 76.9344 97.5303ZM20.1783 77.3947C20.0854 77.3845 19.981 77.3482 19.865 77.2855C19.865 77.2855 19.8301 77.3067 19.7604 77.3491C19.7835 77.4016 19.7951 77.4279 19.7951 77.4279C19.9577 77.3956 20.0854 77.3845 20.1783 77.3947ZM20.1803 75.8949C21.574 75.7468 22.9677 75.5987 25.0931 75.3053C24.2236 74.2355 23.6324 73.4961 23.0759 72.8354C22.8684 71.7628 21.4057 71.4534 21.9303 69.9355C22.801 70.1054 23.5323 70.2601 24.577 70.524C24.5783 69.6241 24.5443 68.9454 24.7543 68.2183C24.7899 67.6972 23.9543 67.3061 25.4187 66.4157C25.661 67.5671 26.1125 68.5913 26.32 69.6639C26.4577 70.879 25.7239 72.524 27.5347 73.0214C28.1664 69.6402 27.0203 67.0402 27.4432 63.4863C29.1134 64.8683 29.2503 66.6833 29.1433 68.5466C29.0714 70.1888 28.651 71.943 28.6837 73.5216C28.5775 74.785 29.308 75.5396 31.1895 75.2947C31.2957 74.0312 31.576 72.8618 31.6471 71.8195C31.6834 70.6985 31.6499 69.7198 31.4771 68.726C31.1661 66.8171 30.5414 65.099 30.2305 63.1901C30.1615 62.7325 30.2668 62.069 30.4421 61.2631C32.9124 63.5574 33.7112 65.3694 33.6017 69.0325C33.4591 71.417 33.0379 73.7711 32.7212 76.0616C32.4757 77.3099 32.6138 78.2249 34.356 77.9648C35.6123 76.3017 34.9529 74.5048 36.4185 72.7145C37.3913 74.6206 36.204 76.7412 36.0969 78.6045C36.0271 78.7469 36.445 78.7925 36.6191 78.8864C37.0726 78.4109 36.6211 77.3867 38.0843 77.3961C37.9788 78.0596 37.8734 78.7231 37.8726 79.3231C37.7672 79.9866 37.0694 80.8105 38.2187 81.0108C38.7425 80.0929 39.301 79.2537 40.3833 77.4967C40.2068 79.2025 40.2056 80.1023 39.9605 81.0506C39.3656 83.0108 40.0957 84.0654 42.1505 84.5143C45.2581 79.2279 45.6486 73.7955 48.7563 68.5091C48.6145 70.2937 48.4727 72.0782 47.8084 73.8809C46.5149 77.2649 44.9774 80.6974 43.5792 84.145C43.0199 85.5841 43.0199 85.5841 44.7609 86.2238C45.5294 84.6576 46.1586 83.0761 46.9272 81.5099C47.6957 79.9436 47.8722 78.2378 49.6164 76.4779C49.511 77.1414 49.6148 77.6777 49.4746 78.2625C49.2993 79.0684 48.8801 79.9227 48.7048 80.7286C48.3898 81.8193 48.2142 82.9251 48.0038 83.9522C48.4573 83.4766 48.9455 83.0798 49.6082 82.4771C49.5024 83.4405 49.6409 84.0556 49.3615 84.6252C48.8373 85.8431 48.139 86.967 47.7194 88.1212C47.4048 88.912 47.8224 89.2575 48.8328 89.1426C49.7872 87.4966 50.7532 85.8769 51.7308 84.2834C51.8934 84.2511 52.0676 84.2451 52.2534 84.2654C51.4493 86.3528 50.7498 88.3765 49.9805 90.5427C51.1641 91.1217 52.3478 91.7007 53.5662 92.3585C54.1946 91.377 54.8924 90.553 55.207 89.7623C56.2207 87.2477 57.0603 84.6392 58.1786 82.0611C58.4233 81.4127 59.0166 80.6524 59.8194 79.4649C59.9886 83.1583 58.3816 86.4332 56.8793 89.6445C56.5296 90.6564 55.9012 91.638 55.5515 92.6499C55.4816 92.7922 55.8992 93.1378 56.2125 93.2469C56.3519 93.2621 56.8749 92.9441 57.0493 92.7381C57.7133 91.2354 58.3425 89.654 59.111 88.0877C59.3905 87.5182 59.9138 86.9002 60.5769 85.9975C61.0607 88.9002 58.6881 91.6417 58.2313 94.5169C61.055 93.0997 60.0483 90.5149 62.2101 89.1005C62.626 90.6458 61.9269 92.3697 60.9839 94.1419C60.6346 94.8538 60.8777 95.4053 62.0622 95.3844C62.7951 94.3393 63.6327 93.2306 64.331 92.1067C64.5167 92.1269 64.7025 92.1471 64.8883 92.1674C64.5383 93.3792 64.1883 94.5911 63.8383 95.803C67.7382 97.128 70.246 97.4013 73.173 96.8203C72.7926 94.7539 72.3424 92.8298 71.9967 90.8421C70.4053 82.7186 66.8265 75.8035 61.5043 70.0484C60.0432 68.5392 58.4428 67.0147 56.9818 65.5055C53.0508 61.4021 47.9334 58.8193 41.734 57.6937C36.8117 56.7573 31.8661 55.8683 26.8973 55.0267C24.7379 54.6414 22.4389 54.5409 20.2097 54.2979C19.3737 54.2068 18.4912 54.2106 17.5621 54.3094C14.984 54.4784 14.1819 55.066 13.6214 57.4049C13.4113 58.132 13.2478 58.8642 13.1307 59.6015C12.3225 64.6884 12.2809 69.7089 12.6576 74.475C13.4789 85.3646 18.1008 93.7434 25.8258 100.135C35.8475 108.428 48.8039 110.44 65.9539 102.709C67.5224 102.055 68.9516 101.385 71.3917 100.301C67.7345 99.8276 64.9827 99.6028 62.2661 99.1567C60.9774 98.9412 59.8277 99.0409 58.2939 99.7738C56.2718 100.903 54.146 101.497 51.9863 101.411C53.1715 100.791 54.4263 100.327 55.507 99.7701C56.1693 99.4672 57.1449 99.2736 57.0072 98.0586C54.9161 98.7307 52.7204 99.4664 50.5599 99.9809C49.5143 100.317 48.1554 100.544 47.5985 100.183C46.7287 99.4134 45.7182 99.5283 44.4986 99.7703C42.5125 100.079 40.5963 100.245 38.6801 100.411C40.7021 99.2816 42.5493 98.6579 44.5358 98.0494C46.383 97.4257 48.4034 97.4959 50.1816 96.4146C50.2518 95.9723 50.3217 95.8299 50.2869 95.7511C47.3632 93.9325 44.4045 92.135 41.411 90.3588C41.0976 90.2496 40.6449 90.1253 40.3315 90.0161C35.0702 90.7177 29.6333 92.5252 25.1067 90.9819C27.2325 90.3885 29.3232 90.0164 31.4486 89.723C34.9677 89.2816 35.0024 89.3603 37.7215 88.0067C36.2232 88.2184 35.143 88.4756 34.0978 88.5117C32.5648 88.6447 31.1364 88.714 29.6733 88.7046C29.534 88.6894 29.3951 88.3742 29.1516 88.1227C31.2088 86.7719 33.1928 87.9631 35.5989 86.2003C34.2404 86.1273 33.0559 86.1482 31.8715 86.1691C30.8263 86.2052 29.6766 86.3049 28.2135 86.2954C29.295 85.1383 29.9568 85.1354 30.7233 85.069C31.3852 85.0661 32.1869 84.7784 33.0232 84.5696C32.5031 82.7879 30.9714 82.0209 30.0672 80.8724C29.2676 79.6602 27.8396 79.4296 26.2371 79.405C23.5895 79.4165 21.0817 79.1431 18.6086 78.9486C18.3299 78.9182 18.1563 78.5243 17.878 78.194C18.6449 77.8276 19.2026 77.5883 19.7604 77.3491C19.9004 76.8644 20.0403 76.3796 20.1803 75.8949ZM48.0038 83.9522C48.0038 83.9522 47.9689 83.9734 47.8992 84.0158C47.9223 84.0683 47.9106 84.1421 47.864 84.237C47.9338 84.1946 47.957 84.1471 47.9339 84.0946C47.9805 83.9997 48.0038 83.9522 48.0038 83.9522ZM46.3968 87.2271C47.5825 86.3063 47.7582 85.2005 47.864 84.237C46.2943 85.7909 46.2943 85.7909 46.3968 87.2271ZM26.6939 76.5297C25.7881 76.581 25.2308 76.5203 24.743 76.6171C23.2563 76.8551 21.7347 77.1143 20.1783 77.3947C23.9748 77.8834 24.6367 77.8806 26.6939 76.5297Z" fill="#CA3D26"/>
<path id="&#60;Path&#62;" d="M37.274 60.9952C38.9849 61.558 39.9277 61.8865 41.1847 62.3245C41.1827 63.8293 41.1106 65.477 39.6758 67.3523C38.348 67.6591 39.9229 65.498 38.3852 65.9323C36.7427 66.4305 36.9889 65.1781 36.9201 64.4181C36.7115 63.6429 37.0622 62.6276 37.274 60.9952Z" fill="#CA3D26"/>
<path id="&#60;Path&#62;_2" d="M47.745 97.7469C46.4533 98.0426 45.4677 98.1537 44.2781 98.3879C44.1885 97.6045 44.0989 96.9178 44.0091 96.3277C44.2813 96.067 44.4176 95.7915 44.4515 95.8677C45.8105 96.0146 47.6119 95.7014 47.745 97.7469Z" fill="#CA3D26"/>
<path id="&#60;Path&#62;_3" d="M21.0572 80.1817C23.4552 79.4967 25.9505 78.4902 28.0563 79.5648C25.172 80.797 23.1957 80.2656 21.0572 80.1817Z" fill="#CA3D26"/>
<path id="&#60;Path&#62;_4" d="M60.5951 107.72C61.5465 107.934 62.5929 108.095 63.8298 108.399C61.2943 109.404 59.0432 109.503 55.8417 110.384C57.9647 109.028 59.2956 108.282 60.6268 107.785L60.5951 107.72Z" fill="#CA3D26"/>
<path id="&#60;Path&#62;_5" d="M19.2076 56.0626C19.2329 54.8338 19.308 53.6104 19.4329 52.3922C21.0405 53.7681 21.4514 55.659 20.6652 59.0288C19.8429 57.4956 19.5066 56.737 19.1329 55.894L19.2076 56.0626Z" fill="#CA3D26"/>
<path id="&#60;Path&#62;_6" d="M18.8094 68.0579C17.2123 68.4489 17.6462 67.1642 17.481 66.2362C18.7456 65.6698 19.8769 65.3694 20.7405 66.4415C20.008 67.0643 19.3753 67.6276 18.7427 68.1909L18.8094 68.0579Z" fill="#CA3D26"/>
<path id="&#60;Path&#62;_7" d="M21.1067 76.9918C22.1906 76.8352 23.2636 76.6551 24.3258 76.4517C24.3578 77.3235 23.7075 77.5244 23.2198 77.5414C22.4069 77.659 21.6266 77.5794 20.8788 77.5699C20.9656 77.4006 21.0416 77.2079 21.1067 76.9918Z" fill="#CA3D26"/>
<path id="&#60;Path&#62;_8" d="M67.3941 102.526C67.5319 101.093 67.6689 100.238 67.8059 99.3836C69.7744 99.741 69.8078 100.107 67.3941 102.526Z" fill="#CA3D26"/>
<path id="&#60;Path&#62;_9" d="M56.2409 76.2525C55.5519 77.5341 54.8295 78.8355 54.0738 80.1567C53.8757 78.8745 54.5759 77.6174 55.4422 76.4481C55.5421 76.3886 56.008 76.2979 56.2409 76.2525Z" fill="#CA3D26"/>
<path id="&#60;Path&#62;_10" d="M32.1393 95.3092C33.9414 94.5512 34.8584 94.2046 36.0604 94.1934C34.923 95.3224 33.942 95.0454 32.1393 95.3092Z" fill="#CA3D26"/>
<path id="&#60;Path&#62;_11" d="M39.0851 95.7927C37.0585 96.844 35.7913 96.9731 33.8904 97.0426C35.9488 96.0564 37.1527 96.0455 39.0851 95.7927Z" fill="#CA3D26"/>
<path id="&#60;Path&#62;_12" d="M19.3148 55.3743C18.8907 55.9368 18.3256 56.484 17.8676 56.0536C17.1981 55.4479 17.0933 54.5994 17.9413 53.4742C18.4109 54.1342 18.8804 54.7942 19.3499 55.4542C19.3851 55.5341 19.3148 55.3743 19.3148 55.3743Z" fill="#CA3D26"/>
<path id="&#60;Path&#62;_13" d="M53.1625 75.8045C53.2329 75.1647 53.3034 74.5249 53.3738 73.885C53.536 73.8528 53.6518 73.8156 53.7214 73.7734C53.6509 74.4132 53.5805 75.053 53.51 75.6929C53.3478 75.7251 53.232 75.7623 53.1625 75.8045Z" fill="#CA3D26"/>
<path id="&#60;Path&#62;_14" d="M18.9385 68.7507C20.3471 68.4607 21.7664 68.1931 23.1964 67.948C22.6842 68.1546 22.1399 68.2939 21.6277 68.5004C20.6354 68.9809 19.675 69.272 19.0025 68.6286L18.9385 68.7507Z" fill="#CA3D26"/>
<path id="&#60;Path&#62;_15" d="M55.8423 76.3034C55.7727 75.7398 55.7032 75.1762 55.6337 74.6126C55.7745 74.5268 55.9622 74.4462 56.1968 74.3706C56.0317 75.0098 55.9135 75.654 55.8423 76.3034Z" fill="#CA3D26"/>
<path id="&#60;Path&#62;_16" d="M60.4128 107.659C60.6683 107.514 60.8919 107.387 61.0836 107.278C61.0836 107.278 61.2434 107.358 61.2754 107.424C60.9772 107.48 60.679 107.537 60.3808 107.593L60.4128 107.659Z" fill="#CA3D26"/>
</g>
</svg>
