<svg width="53" height="50" viewBox="0 0 53 50" fill="none" xmlns="http://www.w3.org/2000/svg">
<g id="&#60;Group&#62;" opacity="0.5">
<path id="&#60;Compound Path&#62;" fill-rule="evenodd" clip-rule="evenodd" d="M24.0378 35.3C22.6378 36.1 21.5378 36.6 20.7378 37.3C17.4378 39.7 13.9378 39.4 10.2378 38.6C7.03778 37.8 4.43777 35.9 1.53777 34.4C1.43777 34.4 1.33778 34.2 1.23778 34.2C-0.362216 32.9 -0.462216 31.1 1.23778 29.9C5.23778 27.1 9.43775 24.5 14.1377 23C14.6377 22.8 15.2378 22.6 15.9378 22.3C15.5378 20.3 14.0377 18.9 13.1377 17.2C12.3377 15.5 11.7377 13.6 11.6377 11.6C11.6377 9.59999 11.6378 7.7 11.7378 5.7C11.8378 3.8 11.3378 1.7 13.3378 0C18.5378 1.8 23.3378 4.2 25.3378 10C26.0378 12.1 26.6378 14.3 27.3378 16.5C32.9378 9 36.4378 6.09999 42.9378 3.59999C43.3378 4.29999 43.8378 4.89999 44.0378 5.59999C45.3378 9.69999 43.8378 13.3 41.8378 16.8C41.2378 17.8 40.4378 18.9 39.7378 19.9C48.1378 22.6 49.8378 23.5 52.2378 26.7C48.5378 32.3 43.1378 33.5 37.0378 32.4C36.1378 33.2 36.6378 33.8 36.8378 34.5C37.9378 38.3 38.0378 42.2 38.1377 46.2C38.1377 47 38.0378 47.9 37.8378 48.7C37.5378 49.7 36.4378 50.3 35.4378 49.8C34.3378 49.3 33.2378 48.6 32.2378 47.9C28.2378 44.8 25.3378 40.9 24.0378 35.3ZM44.5378 23.8C44.4711 23.7333 44.4378 23.6667 44.4378 23.6C44.1378 23.6 43.8378 23.6 43.8378 23.6C43.8378 23.6 44.0378 23.6 44.3378 23.7C44.4044 23.7 44.4711 23.7333 44.5378 23.8ZM45.9378 24.4C46.0045 24.4 46.0378 24.4 46.0378 24.4C46.0378 24.4 46.0711 24.3667 46.1377 24.3C46.0711 24.3 46.0045 24.3333 45.9378 24.4ZM41.9378 27.2C41.6378 27.2 41.4377 27.2 41.1377 27.3C40.8377 27.3 40.6378 27.5 39.8378 27.9C43.2378 28.2 45.9377 28 48.6377 26.2C47.6377 25.5 46.8378 24.9 46.0378 24.4C45.4378 26.4 44.3378 27.7 41.9378 27.2ZM44.5378 23.8C44.7378 24.5 45.2378 24.8 45.9378 24.4C45.4711 24.2 45.0044 24 44.5378 23.8ZM34.3378 36.3C34.3378 35.6333 34.3378 35 34.3378 34.4C34.2711 34.4 34.2044 34.4 34.1377 34.4C34.2044 35 34.2711 35.6333 34.3378 36.3C34.6044 36.7667 34.9045 37.2333 35.2378 37.7C35.7378 36.7 34.8378 36.7 34.3378 36.3ZM19.4378 7C19.5378 5.2 18.3378 4.69999 16.8378 4.39999C16.5378 2.79999 15.4378 2.4 13.7378 2.2C13.7378 5.7 13.8378 8.89999 14.9378 11.9C15.4378 13.2 16.0378 14.6 16.8378 15.6C18.5378 17.7 20.0378 19.9 22.9378 20.4C23.4378 21.9 25.4378 21.5 26.0378 22.8C22.0378 28.6 15.1378 31.6 8.9378 30C9.4378 29.4 9.73778 28.7 10.2378 28.4C11.7378 27.4 13.3378 26.6 14.9378 25.7C15.3378 25.4 15.6378 25 16.0378 24.7C14.9378 24.3 13.8378 24.8 12.9378 25.3C10.0378 27 7.13778 28.7 4.23778 30.5C3.73778 30.8 3.33776 31.4 2.83776 32C5.03776 33.3 7.13778 33.2 9.23778 32.9C13.1378 32.4 16.9378 31.5 20.5378 29.9C21.9378 29.3 23.3378 28.5 24.8378 28.3C26.5378 28.2 27.7378 27.5 28.9378 26.5C31.0045 24.8333 33.3378 24.1667 35.9378 24.5C36.9378 24.6 38.0378 24.5 39.2378 24.5C36.6378 22.1 33.2378 23.8 30.5378 22.1C31.6378 21.1 32.6378 20.2 33.7378 19.2C32.3378 18.5 32.2378 18.5 32.3378 17.2C33.8044 15.8 35.2711 14.4 36.7378 13C36.9378 12.9 36.8378 12.5 36.8378 12.3C34.1378 13.8 34.0378 13.8 31.9378 16.9C31.3378 17.5667 30.7377 18.2667 30.1377 19C29.8377 18.1 29.8378 17.4 30.2378 17C31.7378 15 33.4378 13.2 35.0378 11.3C35.5378 10.7 36.4378 10.5 36.3378 9.5C36.1378 9.5 35.8377 9.49999 35.6377 9.59999C32.5378 11.7 29.9377 14.2 28.6377 17.8C28.4377 18.4 28.0378 18.9 27.5378 19.9C26.8378 18.8 26.2378 18 25.8378 17.2C25.1378 16 25.0377 14.5 23.6377 13.7C23.6377 13 23.9378 12.2 22.8378 12C22.4378 9.1 21.8378 8.3 19.4378 7ZM16.0378 24.7C16.0378 24.7 16.0711 24.7 16.1377 24.7C16.1377 24.7 16.1377 24.6667 16.1377 24.6C16.1377 24.6 16.1044 24.6 16.0378 24.6C16.0378 24.6667 16.0378 24.7 16.0378 24.7ZM18.4378 24.4C17.1378 23.8 16.4377 23.6 16.1377 24.6C16.7377 24.6 17.4378 24.5 18.4378 24.4ZM36.3378 9.5C36.4044 9.5 36.4378 9.5 36.4378 9.5C36.4378 9.43333 36.4711 9.39999 36.5378 9.39999C36.4711 9.39999 36.4044 9.39999 36.3378 9.39999C36.3378 9.39999 36.3378 9.43333 36.3378 9.5ZM39.0378 8.59999C39.9378 8.49999 40.9377 8.69999 42.1377 8.79999C42.1377 7.79999 42.1377 6.89999 42.1377 5.79999C39.9377 6.89999 37.7378 7.39999 36.5378 9.39999C37.3378 9.09999 38.2378 8.69999 39.0378 8.59999ZM32.5378 36.7C32.2378 33.9 31.6378 31.7 29.9378 29.5C30.1378 33.6 30.3378 34.3 32.5378 36.7ZM21.0378 25.7C18.3378 25.5 16.6378 26.5 14.4378 27.9C17.1378 28.2 18.9378 27.1 21.0378 25.7ZM35.4378 16.8C37.6378 15.8 37.6378 15.8 38.3378 14.3C37.4378 15.1 36.4378 15.9 35.4378 16.8ZM35.3378 44.1C35.3378 42.8 35.3378 41.8 35.3378 40.8C34.3378 41.2 33.6378 41.5 32.7378 42C33.7378 42.8 34.3378 43.4 35.3378 44.1ZM21.1377 23.5C21.1377 23.4 21.1378 23.3 21.0378 23.3C20.9044 23.2333 20.8045 23.2333 20.7378 23.3C20.6378 23.3 20.5378 23.4 20.4378 23.5C20.7045 23.5 20.9377 23.5 21.1377 23.5ZM40.3378 12.3C40.3378 12.2333 40.3045 12.1667 40.2378 12.1C40.1378 12.1 40.0378 12.1 40.0378 12.2C40.0378 12.2 40.0378 12.3 40.1377 12.4C40.2044 12.4 40.2711 12.3667 40.3378 12.3Z" fill="#CA3D26"/>
<path id="&#60;Compound Path&#62;_2" fill-rule="evenodd" clip-rule="evenodd" d="M22.9378 12C22.8378 12.7 22.7378 13.4 23.7378 13.6C24.0378 15.8 24.4378 17.9 24.7378 20.2C24.1378 20.3333 23.5044 20.4333 22.8378 20.5C20.2378 17.4 17.8378 14.2 16.4378 10.4C16.0378 9.29999 15.6378 8.3 15.3378 7.2C14.9378 5.8 15.5378 4.79999 16.9378 4.29999C17.6378 5.29999 18.2378 6.49999 19.5378 6.89999C20.1378 8.89999 21.2378 10.7 22.9378 12ZM20.3378 13.9C20.3378 13.8333 20.3378 13.7667 20.3378 13.7C20.2711 13.7 20.2378 13.7 20.2378 13.7C20.2378 13.7 20.2378 13.7333 20.2378 13.8C20.2378 13.8 20.2711 13.8333 20.3378 13.9ZM20.2378 13C20.2378 12.9 20.1378 12.8 20.0378 12.7C19.9378 12.9 19.6378 13.1 19.7378 13.3C19.7378 13.4 20.0378 13.6 20.2378 13.7C20.2378 13.4333 20.2378 13.2 20.2378 13ZM20.9378 15.5C20.9378 15.5 20.9378 15.5333 20.9378 15.6C20.9378 15.6 20.9711 15.6 21.0378 15.6C21.0378 15.6 21.0045 15.5667 20.9378 15.5ZM22.3378 17.5C22.4378 16.4 22.4378 15.3 21.0378 15.6C21.4378 16.2 21.8711 16.8333 22.3378 17.5ZM20.3378 13.9C20.5378 14.4333 20.7378 14.9667 20.9378 15.5C21.3378 14.5 21.2378 14.2 20.3378 13.9Z" fill="#CA3D26"/>
<path id="&#60;Path&#62;" d="M28.7378 22.9C29.0378 23.4 29.4378 23.7 29.3378 24C29.3378 24.2 28.8378 24.5 28.5378 24.5C28.3378 24.5 28.0378 24 28.0378 23.7C28.0378 23.5 28.4378 23.3 28.7378 22.9Z" fill="#CA3D26"/>
</g>
</svg>
