<svg width="17" height="17" viewBox="0 0 17 17" fill="none" xmlns="http://www.w3.org/2000/svg">
<g id="Frame" clip-path="url(#clip0_415_11)">
<rect width="16" height="16" transform="translate(0.625 0.625)" fill="#CA3D26"/>
<g id="Group">
<path id="Vector" d="M16.625 3.664C16.03 3.925 15.396 4.098 14.735 4.182C15.415 3.776 15.934 3.138 16.178 2.369C15.544 2.747 14.844 3.014 14.098 3.163C13.496 2.522 12.638 2.125 11.702 2.125C9.886 2.125 8.424 3.599 8.424 5.406C8.424 5.666 8.446 5.916 8.5 6.154C5.773 6.021 3.36 4.714 1.739 2.723C1.456 3.214 1.29 3.776 1.29 4.381C1.29 5.517 1.875 6.524 2.747 7.107C2.22 7.097 1.703 6.944 1.265 6.703V6.739C1.265 8.333 2.402 9.657 3.893 9.962C3.626 10.035 3.335 10.07 3.033 10.07C2.823 10.07 2.611 10.058 2.412 10.014C2.837 11.313 4.043 12.268 5.477 12.299C4.361 13.172 2.944 13.698 1.41 13.698C1.141 13.698 0.883 13.686 0.625 13.653C2.078 14.59 3.8 15.125 5.657 15.125C11.693 15.125 14.993 10.125 14.993 5.791C14.993 5.646 14.988 5.506 14.981 5.367C15.632 4.905 16.179 4.328 16.625 3.664Z" fill="#FAFAFA"/>
</g>
</g>
<defs>
<clipPath id="clip0_415_11">
<rect width="16" height="16" fill="white" transform="translate(0.625 0.625)"/>
</clipPath>
</defs>
</svg>
