<svg width="40" height="40" viewBox="0 0 40 40" fill="none" xmlns="http://www.w3.org/2000/svg">
<g id="Group 34">
<rect id="Rectangle 18" width="40" height="40" rx="20" fill="#FEC007"/>
<path id="Arrow 2" d="M11 20.8581C10.5261 20.8581 10.1419 20.4739 10.1419 20C10.1419 19.5261 10.5261 19.1419 11 19.1419V20.8581ZM29.6068 19.3932C29.9419 19.7283 29.9419 20.2717 29.6068 20.6068L24.1458 26.0678C23.8106 26.4029 23.2673 26.4029 22.9322 26.0678C22.5971 25.7327 22.5971 25.1894 22.9322 24.8542L27.7864 20L22.9322 15.1458C22.5971 14.8106 22.5971 14.2673 22.9322 13.9322C23.2673 13.5971 23.8106 13.5971 24.1458 13.9322L29.6068 19.3932ZM11 19.1419L29 19.1419V20.8581L11 20.8581V19.1419Z" fill="#FAFAFA"/>
</g>
</svg>
