<svg width="17" height="17" viewBox="0 0 17 17" fill="none" xmlns="http://www.w3.org/2000/svg">
<g id="Frame" clip-path="url(#clip0_415_16)">
<g id="Group">
<path id="Vector" d="M15.3159 4.93499C15.1431 4.29238 14.6364 3.78583 13.9939 3.61279C12.8201 3.29163 8.12481 3.29163 8.12481 3.29163C8.12481 3.29163 3.42972 3.29163 2.25592 3.60063C1.62576 3.77348 1.10676 4.2925 0.933906 4.93499C0.625 6.1087 0.625 8.54284 0.625 8.54284C0.625 8.54284 0.625 10.9892 0.933906 12.1506C1.10692 12.7932 1.61341 13.2997 2.25601 13.4728C3.44207 13.794 8.125 13.794 8.125 13.794C8.125 13.794 12.8201 13.794 13.9939 13.485C14.6365 13.3121 15.1431 12.8055 15.3161 12.163C15.6249 10.9892 15.6249 8.55517 15.6249 8.55517C15.6249 8.55517 15.6373 6.10867 15.3159 4.93499ZM6.62992 10.7916V6.29406L10.5343 8.5428L6.62992 10.7916Z" fill="#FAFAFA"/>
</g>
</g>
<defs>
<clipPath id="clip0_415_16">
<rect width="16" height="16" fill="white" transform="translate(0.625 0.625)"/>
</clipPath>
</defs>
</svg>
